<?xml version="1.0" standalone="no"?>
<!DOCTYPE svg PUBLIC "-//W3C//DTD SVG 20010904//EN"
 "http://www.w3.org/TR/2001/REC-SVG-20010904/DTD/svg10.dtd">
<svg version="1.0" xmlns="http://www.w3.org/2000/svg"
 width="1024.000000pt" height="1024.000000pt" viewBox="0 0 1024.000000 1024.000000"
 preserveAspectRatio="xMidYMid meet">
<metadata>
Created by potrace 1.16, written by Peter Selinger 2001-2019
</metadata>
<g transform="translate(0.000000,1024.000000) scale(0.100000,-0.100000)"
fill="#000000" stroke="none">
<path d="M5212 8000 c-67 -39 -246 -211 -327 -315 -253 -324 -385 -612 -449
-978 l-24 -139 -126 -126 c-279 -280 -402 -502 -461 -837 -20 -113 -30 -449
-17 -573 9 -86 12 -96 43 -128 18 -19 42 -34 52 -34 12 0 72 53 152 133 96 96
156 147 220 186 84 53 296 140 341 141 15 0 31 -16 55 -52 l34 -53 5 -170 c6
-190 10 -203 75 -238 35 -19 60 -22 205 -25 91 -2 302 1 470 6 427 12 420 7
420 267 l0 156 29 37 c16 20 32 47 36 59 7 26 23 25 150 -14 157 -49 297 -142
493 -327 61 -58 115 -106 120 -106 21 0 52 34 68 76 15 40 16 72 11 287 -12
452 -80 706 -258 961 -71 101 -166 205 -268 291 l-79 66 -6 82 c-21 249 -163
627 -329 872 -194 288 -444 524 -557 525 -14 0 -49 -14 -78 -30z m245 -356
c75 -71 105 -105 98 -113 -13 -13 -274 -34 -335 -26 -25 3 -75 11 -112 17
l-67 11 32 41 c49 63 146 159 186 183 34 20 37 20 63 5 15 -9 76 -62 135 -118z
m306 -427 c70 -133 111 -240 147 -389 97 -397 74 -825 -68 -1243 l-37 -110
-498 0 -497 0 -29 75 c-119 309 -157 530 -148 865 7 258 47 459 137 688 36 93
114 227 132 227 5 0 39 -9 78 -19 183 -51 405 -52 595 -3 67 17 115 24 122 19
7 -5 36 -55 66 -110z m-1350 -1096 c10 -152 43 -324 86 -447 l39 -112 -92 -32
c-125 -45 -236 -103 -335 -178 -46 -34 -85 -61 -88 -59 -7 8 17 272 33 350 25
125 80 264 147 374 33 55 177 203 197 203 4 0 10 -44 13 -99z m1845 37 c166
-177 246 -340 282 -578 11 -69 20 -162 20 -208 l0 -83 -50 47 c-102 97 -170
137 -338 199 -83 30 -102 41 -97 54 54 138 90 305 107 493 6 75 15 135 20 132
5 -3 30 -28 56 -56z m-604 -979 c3 -34 6 -75 6 -91 l0 -29 -355 2 -355 2 0 82
c0 45 3 85 7 88 3 4 160 7 348 7 l342 0 7 -61z"/>
<path d="M5234 7040 c-28 -4 -84 -25 -124 -46 -159 -83 -261 -276 -231 -440
36 -200 199 -351 391 -362 181 -10 329 78 414 247 50 97 61 155 47 239 -40
235 -264 398 -497 362z m153 -245 c76 -32 113 -92 113 -183 0 -208 -280 -269
-374 -81 -43 86 -29 177 36 235 48 44 156 58 225 29z"/>
<path d="M5220 5972 c-72 -40 -99 -135 -60 -213 28 -53 72 -79 136 -79 65 0
111 29 142 90 37 73 19 141 -51 194 -38 28 -122 33 -167 8z"/>
<path d="M5592 4665 c-4 -5 -7 -554 -9 -1220 -2 -1203 -2 -1210 18 -1242 23
-36 65 -63 99 -63 29 0 70 25 94 58 19 24 19 46 17 599 l-3 574 30 47 c17 26
55 97 85 159 30 62 71 134 91 162 82 111 214 205 331 235 77 21 230 20 309 0
203 -52 404 -242 466 -441 34 -110 42 -246 38 -653 -3 -362 -2 -387 16 -412
21 -32 82 -54 122 -44 15 4 40 21 56 38 l28 30 -4 437 c-3 330 -8 454 -19 511
-48 242 -173 447 -359 588 -119 89 -181 124 -294 161 -167 56 -353 37 -532
-53 -113 -57 -223 -155 -334 -296 l-28 -35 0 427 c0 422 0 427 -21 438 -25 14
-188 9 -197 -5z"/>
<path d="M4920 4664 c-103 -15 -130 -26 -137 -52 -5 -15 -8 -189 -8 -388 l0
-360 -90 91 c-108 108 -224 181 -363 225 -190 61 -317 62 -494 2 -264 -89
-491 -333 -593 -637 -65 -195 -68 -226 -70 -635 -1 -206 2 -393 6 -415 5 -23
17 -46 28 -54 17 -11 21 -24 21 -66 0 -29 3 -67 6 -84 6 -26 11 -31 35 -31 16
0 29 5 29 10 0 6 6 10 13 10 15 0 47 101 47 148 0 18 7 44 16 57 14 21 16 77
19 422 2 367 4 404 23 480 52 201 122 326 251 445 87 80 185 131 303 155 121
24 283 9 383 -36 106 -48 262 -184 323 -281 19 -30 51 -79 71 -109 l36 -53 3
-632 c2 -433 6 -640 13 -659 7 -15 25 -39 41 -52 50 -42 102 -30 148 35 l21
30 -1 1167 c0 643 -3 1192 -7 1221 -6 56 -6 55 -73 46z"/>
<path d="M4293 4610 c-22 -13 -36 -32 -44 -60 -11 -36 -10 -44 8 -68 11 -15
37 -33 57 -41 33 -13 41 -12 72 3 23 11 40 29 51 53 14 34 14 40 -2 70 -17 30
-67 63 -97 63 -7 0 -27 -9 -45 -20z"/>
<path d="M6476 4604 c-20 -21 -26 -36 -26 -72 0 -120 139 -138 186 -26 20 48
18 62 -15 95 -40 40 -106 41 -145 3z"/>
<path d="M3959 4591 c-48 -49 -34 -114 30 -141 42 -17 78 -5 101 33 29 47 26
80 -11 111 -41 35 -83 34 -120 -3z"/>
<path d="M5223 4566 l-37 -33 3 -1154 c3 -1245 0 -1178 54 -1213 51 -33 74
-31 117 12 l40 40 0 1148 c0 1095 -1 1150 -18 1177 -45 67 -102 76 -159 23z"/>
<path d="M8481 2583 c-48 -124 -102 -228 -153 -298 -68 -92 -194 -221 -278
-285 -185 -141 -457 -249 -730 -292 -125 -19 -3935 -19 -4060 0 -110 17 -318
68 -395 97 -146 54 -290 141 -419 251 -49 42 -70 55 -62 39 6 -13 14 -21 18
-19 3 2 9 0 13 -6 3 -5 1 -10 -5 -10 -6 0 -8 -5 -4 -11 5 -8 8 -8 14 0 9 16
28 -8 25 -31 -2 -11 3 -15 15 -13 12 2 20 -4 24 -20 13 -51 170 -186 221 -189
6 -1 11 -11 13 -23 2 -16 11 -23 25 -24 19 -1 19 -2 4 -6 -16 -4 -15 -7 8 -19
15 -8 40 -14 55 -14 20 0 27 -5 26 -17 0 -10 5 -17 12 -15 13 2 16 0 66 -44
17 -15 36 -24 47 -21 12 3 19 0 19 -8 0 -21 17 -27 40 -15 15 8 20 8 18 -1 -2
-7 5 -15 16 -17 11 -2 16 0 12 7 -4 6 -5 11 -2 11 3 0 12 -12 20 -27 8 -16 15
-23 16 -16 0 7 6 10 14 7 8 -3 17 2 20 13 3 10 4 6 2 -9 -2 -16 1 -28 5 -28 5
0 9 5 9 10 0 15 30 12 36 -4 3 -8 18 -16 33 -19 16 -3 36 -14 45 -23 9 -9 20
-13 24 -9 4 4 1 10 -5 12 -7 3 -13 9 -13 15 0 6 6 6 15 -2 8 -7 15 -19 15 -26
0 -19 17 -18 28 2 11 20 52 10 52 -12 0 -8 7 -14 15 -14 8 0 15 5 15 10 0 16
18 11 39 -11 17 -18 19 -19 18 -3 -2 15 6 17 58 15 39 -2 67 -9 79 -19 11 -9
16 -11 12 -5 -4 7 -2 21 3 30 10 17 10 17 11 1 0 -10 5 -18 10 -18 6 0 10 5
10 12 0 6 3 8 7 5 3 -4 12 -2 20 4 8 8 13 8 13 1 0 -6 12 -9 28 -7 15 1 29 -1
32 -6 3 -5 22 -3 42 3 32 9 40 8 64 -11 20 -16 35 -20 56 -16 23 5 28 3 29
-12 0 -15 2 -14 11 5 6 12 17 22 24 22 7 0 15 6 18 13 3 9 8 8 18 -4 17 -20
108 -20 124 0 8 10 13 11 18 3 4 -6 13 -9 21 -5 9 3 22 0 29 -7 11 -8 20 -9
35 0 18 9 21 8 21 -10 0 -18 4 -20 23 -14 39 13 145 20 167 12 14 -5 29 -3 43
7 12 8 28 15 37 14 10 0 9 -3 -5 -10 -15 -7 -12 -8 12 -3 18 3 38 2 45 -3 21
-13 58 -14 58 -2 0 7 10 9 25 7 14 -3 28 -2 31 3 2 4 11 6 19 2 9 -3 15 1 15
11 0 9 5 16 10 16 6 0 10 -6 10 -14 0 -20 49 -29 113 -21 39 5 64 2 91 -9 40
-17 56 -14 56 10 0 19 16 18 24 -2 5 -14 7 -14 22 0 20 20 34 20 34 1 0 -8 9
-15 20 -15 11 0 20 -6 21 -12 0 -7 4 -4 9 7 7 17 9 17 9 3 1 -21 17 -24 24 -5
3 9 7 9 19 0 11 -10 17 -10 26 -1 9 9 12 9 12 -1 0 -11 3 -11 15 -1 12 10 19
10 27 2 8 -8 14 -7 24 5 9 13 15 14 25 7 8 -6 27 -14 42 -18 24 -6 28 -4 25
11 -2 11 -11 17 -23 15 -16 -2 -17 -1 -6 7 17 11 51 -7 51 -26 0 -7 5 -13 10
-13 6 0 10 7 10 16 0 11 6 14 20 9 12 -4 20 -2 20 5 0 7 6 8 19 0 24 -13 84
-13 76 -1 -3 5 -1 12 4 15 5 3 12 -1 15 -10 4 -11 12 -14 24 -9 9 4 39 7 65 6
33 -2 47 1 42 9 -10 17 19 7 32 -12 14 -17 50 -18 46 0 -1 5 13 12 32 14 26 3
35 0 35 -11 0 -11 4 -10 14 5 8 10 18 16 22 11 4 -4 2 -7 -5 -7 -7 0 -9 -5 -6
-10 4 -6 11 -8 16 -5 5 4 9 2 9 -3 0 -5 17 -8 38 -7 20 1 40 -3 44 -9 4 -7 15
-6 30 1 15 7 30 7 40 2 11 -6 19 -5 23 1 4 6 15 8 26 5 14 -5 19 -1 20 12 0
14 2 15 6 3 8 -21 24 -30 55 -30 22 0 26 -4 21 -17 -6 -15 -5 -16 9 -3 10 9
12 17 6 21 -7 4 -7 9 0 13 6 3 13 2 17 -4 8 -13 55 -13 55 0 0 5 13 7 30 3 23
-4 34 -1 45 13 13 16 14 17 9 2 -7 -19 20 -26 31 -8 9 14 32 1 40 -23 8 -21 8
-21 12 4 3 22 8 25 33 21 18 -3 30 0 30 7 0 16 42 13 68 -5 17 -12 22 -12 22
-2 0 9 3 9 10 -2 9 -13 12 -12 26 5 15 19 16 19 29 2 15 -20 23 -21 44 -4 11
9 15 9 18 0 5 -15 63 -18 63 -3 0 6 6 10 14 10 9 0 12 -7 9 -20 -5 -21 11 -28
22 -10 3 6 24 10 45 10 21 0 40 5 42 12 3 7 9 8 18 3 21 -13 52 -13 47 -1 -3
7 3 12 13 12 12 0 16 -5 12 -16 -5 -13 -3 -13 11 -1 9 7 15 17 12 21 -3 4 12
6 33 4 86 -10 98 -10 109 -2 7 6 15 3 21 -8 6 -11 11 -13 16 -5 4 6 2 11 -3
11 -6 0 -11 8 -11 18 0 14 2 15 10 2 8 -12 11 -13 19 -1 5 7 10 9 12 4 7 -18
56 -24 62 -8 4 9 1 12 -9 8 -7 -3 -14 0 -14 6 0 6 14 11 31 11 21 0 28 -4 23
-12 -6 -10 -5 -10 7 -2 8 7 27 11 43 9 39 -5 67 14 60 40 -6 20 -6 20 10 0 10
-13 15 -15 16 -6 0 11 3 11 16 1 8 -8 14 -9 13 -4 -4 21 2 28 12 14 8 -11 12
-12 16 -2 2 6 12 12 20 12 9 0 13 6 10 15 -4 8 -2 17 2 20 5 3 8 -8 7 -25 -2
-23 1 -27 11 -18 7 6 13 16 13 23 0 8 15 11 45 10 35 -1 46 3 51 17 3 10 11
18 19 18 7 0 21 8 31 18 10 9 19 16 21 15 2 -2 6 -3 11 -3 4 0 0 5 -8 11 -12
8 -10 9 8 4 18 -5 22 -2 22 17 1 20 2 21 11 6 14 -26 25 -22 24 8 0 22 5 27
31 29 38 3 83 34 84 57 0 11 12 18 39 23 27 4 41 13 44 26 3 10 12 19 21 19 8
0 26 11 40 25 14 14 22 25 19 25 -3 0 1 8 9 18 8 9 18 25 21 35 4 9 13 17 20
17 14 0 32 51 28 78 -1 6 5 12 14 12 8 0 15 7 15 15 0 8 5 15 10 15 6 0 10 7
10 16 0 8 14 32 30 53 17 21 30 42 29 47 -3 15 12 47 35 72 12 13 19 24 16 25
-2 1 2 12 11 24 9 13 19 20 24 15 5 -4 5 -2 2 4 -7 12 14 64 26 64 4 0 7 9 7
20 0 11 8 34 18 52 34 63 82 198 70 198 -2 0 -19 -39 -37 -87z"/>
</g>
</svg>
